<?xml version="1.0" encoding="utf-8"?>
<!-- Generated by IcoMoon.io -->
<!DOCTYPE svg PUBLIC "-//W3C//DTD SVG 1.1//EN" "http://www.w3.org/Graphics/SVG/1.1/DTD/svg11.dtd">
<svg version="1.1" xmlns="http://www.w3.org/2000/svg" xmlns:xlink="http://www.w3.org/1999/xlink" width="16" height="16" viewBox="0 0 16 16">
<g>
</g>
	<path d="M11.72 6.81c-1.824-3.926-2.772-5.417-5.753-5.354-1.062 0.022-0.806-0.769-1.616-0.469-0.809 0.299-0.114 0.738-0.942 1.418-2.322 1.906-2.108 3.669-1.031 7.872 0.454 1.77-1.094 1.857-0.482 3.573 0.447 1.25 3.743 1.775 7.221 0.484 3.478-1.29 5.672-3.85 5.225-5.102-0.612-1.715-1.853-0.768-2.622-2.421zM8.739 13.277c-3.105 1.152-5.658 0.474-5.766 0.174-0.186-0.519 1.002-2.253 4.553-3.57 3.55-1.318 5.532-0.829 5.739-0.249 0.122 0.342-1.42 2.493-4.526 3.646zM7.742 10.482c-1.624 0.602-2.752 1.291-3.482 1.912 0.514 0.467 1.477 0.581 2.437 0.225 1.222-0.454 1.972-1.494 1.675-2.324-0.003-0.010-0.009-0.019-0.013-0.029-0.2 0.065-0.406 0.137-0.617 0.216z" fill="#126c96" />
</svg>
