<?xml version="1.0" encoding="utf-8"?>
<!-- Generated by IcoMoon.io -->
<!DOCTYPE svg PUBLIC "-//W3C//DTD SVG 1.1//EN" "http://www.w3.org/Graphics/SVG/1.1/DTD/svg11.dtd">
<svg version="1.1" xmlns="http://www.w3.org/2000/svg" xmlns:xlink="http://www.w3.org/1999/xlink" width="16" height="16" viewBox="0 0 16 16">
<g>
</g>
	<path d="M6.502 11.042c-0.552 0.957-0.181 1.744 0.585 2.186s1.634 0.371 2.186-0.586c0.552-0.956 4.038-9.493 3.734-9.668-0.302-0.175-5.953 7.111-6.505 8.068zM8 4.962c0.35 0 0.692 0.030 1.025 0.086 0.35-0.438 0.743-0.922 1.125-1.382-0.682-0.198-1.401-0.305-2.15-0.305-4.486 0-8 3.782-8 8.611 0 0.298 0.014 0.594 0.039 0.884 0.039 0.44 0.432 0.764 0.868 0.726 0.44-0.040 0.765-0.428 0.726-0.868-0.022-0.242-0.033-0.492-0.033-0.742 0-3.931 2.812-7.011 6.4-7.011zM13.775 5.961c-0.223 0.6-0.459 1.211-0.667 1.74 0.814 1.176 1.292 2.65 1.292 4.272 0 0.254-0.011 0.509-0.034 0.756-0.040 0.44 0.284 0.829 0.724 0.87 0.025 0.002 0.049 0.003 0.074 0.003 0.409 0 0.758-0.313 0.795-0.727 0.027-0.296 0.041-0.599 0.041-0.902 0-2.361-0.842-4.471-2.225-6.012z" fill="#126c96" />
</svg>
