<?xml version="1.0" encoding="utf-8"?>
<!-- Generated by IcoMoon.io -->
<!DOCTYPE svg PUBLIC "-//W3C//DTD SVG 1.1//EN" "http://www.w3.org/Graphics/SVG/1.1/DTD/svg11.dtd">
<svg version="1.1" xmlns="http://www.w3.org/2000/svg" xmlns:xlink="http://www.w3.org/1999/xlink" width="16" height="16" viewBox="0 0 16 16">
<g>
</g>
	<path d="M7.902 0.641c-4.065 0.054-7.316 3.394-7.262 7.458 0.054 4.062 3.394 7.314 7.458 7.26 4.063-0.054 7.315-3.394 7.26-7.458-0.054-4.063-3.393-7.314-7.457-7.26zM7.881 12.48h-0.041c-0.626-0.018-1.067-0.48-1.050-1.097 0.018-0.606 0.47-1.046 1.075-1.046l0.037 0.001c0.643 0.019 1.080 0.476 1.061 1.11-0.018 0.607-0.463 1.032-1.082 1.032zM10.514 7.254c-0.148 0.209-0.471 0.469-0.879 0.786l-0.45 0.31c-0.246 0.192-0.395 0.372-0.45 0.549-0.045 0.141-0.066 0.177-0.070 0.461l-0.001 0.073h-1.714l0.005-0.146c0.021-0.597 0.036-0.947 0.283-1.238 0.388-0.455 1.244-1.006 1.28-1.030 0.122-0.093 0.226-0.198 0.303-0.31 0.18-0.248 0.259-0.444 0.259-0.635 0-0.266-0.079-0.513-0.235-0.732-0.15-0.212-0.436-0.319-0.849-0.319-0.41 0-0.69 0.13-0.858 0.397-0.174 0.274-0.26 0.562-0.26 0.856v0.074h-1.768l0.003-0.077c0.046-1.083 0.432-1.862 1.149-2.318 0.45-0.29 1.010-0.437 1.662-0.437 0.855 0 1.578 0.208 2.146 0.618 0.576 0.415 0.868 1.038 0.868 1.849 0 0.454-0.143 0.881-0.426 1.268z" fill="#126c96" />
</svg>
