<?xml version="1.0" encoding="utf-8"?>
<!-- Generated by IcoMoon.io -->
<!DOCTYPE svg PUBLIC "-//W3C//DTD SVG 1.1//EN" "http://www.w3.org/Graphics/SVG/1.1/DTD/svg11.dtd">
<svg version="1.1" xmlns="http://www.w3.org/2000/svg" xmlns:xlink="http://www.w3.org/1999/xlink" width="16" height="16" viewBox="0 0 16 16">
<g>
</g>
	<path d="M12.64 6.4h-1.44v-1.92c0-2.318-1.068-3.68-3.2-3.68-2.133 0-3.2 1.362-3.2 3.68v0.32h1.6v-0.64c0-1.156 0.638-1.76 1.6-1.76 0.962 0 1.6 0.604 1.6 1.76v2.24h-6.4c-0.442 0-0.8 0.518-0.8 0.96v6.24c0 0.44 0.343 0.91 0.762 1.046l0.957 0.31c0.419 0.134 1.122 0.245 1.562 0.245h4.64c0.441 0 1.143-0.11 1.562-0.246l0.957-0.31c0.418-0.134 0.762-0.605 0.762-1.045v-6.24c0-0.442-0.518-0.96-0.96-0.96z" fill="#126c96" />
</svg>
