<?xml version="1.0" encoding="utf-8"?>
<!-- Generated by IcoMoon.io -->
<!DOCTYPE svg PUBLIC "-//W3C//DTD SVG 1.1//EN" "http://www.w3.org/Graphics/SVG/1.1/DTD/svg11.dtd">
<svg version="1.1" xmlns="http://www.w3.org/2000/svg" xmlns:xlink="http://www.w3.org/1999/xlink" width="16" height="16" viewBox="0 0 16 16">
<g>
</g>
	<path d="M12.641 6.402h-1.441v-1.12c0-2.318-1.067-3.68-3.2-3.68-2.132 0-3.2 1.362-3.2 3.68v1.12h-1.6c-0.442 0-0.8 0.518-0.8 0.96v6.24c0 0.44 0.343 0.911 0.762 1.046l0.957 0.31c0.418 0.135 1.121 0.246 1.562 0.246h4.64c0.44 0 1.143-0.11 1.562-0.246l0.957-0.31c0.419-0.134 0.762-0.606 0.762-1.046v-6.24c0-0.442-0.518-0.96-0.959-0.96zM6.4 4.962c0-1.156 0.638-1.76 1.6-1.76 0.962 0 1.6 0.604 1.6 1.76v1.44h-3.2v-1.44z" fill="#126c96" />
</svg>
