<?xml version="1.0" encoding="utf-8"?>
<!-- Generated by IcoMoon.io -->
<!DOCTYPE svg PUBLIC "-//W3C//DTD SVG 1.1//EN" "http://www.w3.org/Graphics/SVG/1.1/DTD/svg11.dtd">
<svg version="1.1" xmlns="http://www.w3.org/2000/svg" xmlns:xlink="http://www.w3.org/1999/xlink" width="16" height="16" viewBox="0 0 16 16">
<g>
</g>
	<path d="M13.778 5.623c-1.266-2.948-3.306-5.193-4.337-4.773-1.751 0.712 1.044 4.131-7.557 7.627-0.743 0.302-0.931 1.51-0.62 2.233 0.31 0.722 1.326 1.442 2.070 1.14 0.128-0.052 0.601-0.204 0.601-0.204 0.53 0.712 1.086 0.29 1.283 0.742 0.237 0.544 0.751 1.726 0.926 2.127 0.176 0.402 0.573 0.774 0.861 0.665 0.286-0.11 1.265-0.482 1.639-0.624s0.464-0.476 0.35-0.739c-0.123-0.283-0.629-0.366-0.773-0.698-0.145-0.331-0.616-1.391-0.751-1.726-0.184-0.454 0.207-0.824 0.776-0.883 3.915-0.408 4.647 2.010 5.98 1.468 1.029-0.421 0.819-3.408-0.447-6.356zM13.338 10.405c-0.229 0.093-1.77-1.122-2.754-3.414-0.984-2.291-0.86-4.386-0.632-4.478 0.229-0.094 1.732 1.373 2.717 3.664 0.983 2.29 0.898 4.135 0.67 4.228z" fill="#126c96" />
</svg>
