<?xml version="1.0" encoding="utf-8"?>
<!-- Generated by IcoMoon.io -->
<!DOCTYPE svg PUBLIC "-//W3C//DTD SVG 1.1//EN" "http://www.w3.org/Graphics/SVG/1.1/DTD/svg11.dtd">
<svg version="1.1" xmlns="http://www.w3.org/2000/svg" xmlns:xlink="http://www.w3.org/1999/xlink" width="16" height="16" viewBox="0 0 16 16">
<g>
</g>
	<path d="M14.952 9.877l-1.382-1.232c-0.4-0.357-0.4-0.939 0-1.296l1.382-1.231c0.4-0.357 0.293-0.689-0.238-0.739l-1.831-0.174c-0.53-0.050-0.816-0.506-0.634-1.014l0.972-2.706c0.182-0.507-0.041-0.692-0.495-0.41l-2.161 1.336c-0.454 0.282-1.042 0.128-1.305-0.342l-0.783-1.397c-0.262-0.47-0.698-0.472-0.966-0.006l-0.727 1.266c-0.268 0.466-0.884 0.666-1.369 0.442l-1.28-0.588c-0.486-0.222-0.858 0.035-0.83 0.574l0.070 1.292c0.029 0.538-0.369 1.094-0.883 1.232l-1.236 0.332c-0.514 0.139-0.609 0.544-0.209 0.901l1.382 1.231c0.4 0.356 0.4 0.939 0 1.295l-1.382 1.23c-0.4 0.358-0.294 0.702 0.234 0.766l1.676 0.203c0.529 0.066 0.824 0.538 0.655 1.049l-0.86 2.606c-0.169 0.513 0.072 0.713 0.534 0.444l1.97-1.139c0.463-0.269 1.085-0.12 1.382 0.326l0.818 1.23c0.297 0.449 0.744 0.423 0.991-0.054l0.719-1.386c0.249-0.478 0.842-0.674 1.319-0.434l1.387 0.694c0.478 0.239 0.846-0.006 0.817-0.546l-0.070-1.292c-0.029-0.539 0.369-1.094 0.883-1.233l1.235-0.331c0.516-0.14 0.61-0.545 0.21-0.901zM8.8 11.356h-1.6v-1.68h1.6v1.68zM8.8 8.797h-1.6v-4.16h1.6v4.16z" fill="#126c96" />
</svg>
